<svg width="326" height="162" viewBox="0 0 326 162" fill="none" xmlns="http://www.w3.org/2000/svg">
<rect width="326" height="161.5" rx="8" fill="#1F2A44"/>
<path d="M133.521 35.8499V45.7523C133.521 45.9128 133.457 46.0667 133.342 46.1802C133.228 46.2937 133.073 46.3575 132.912 46.3575H129.768C129.606 46.3574 129.452 46.2936 129.338 46.1801C129.223 46.0667 129.159 45.9128 129.159 45.7523V29.6457C129.159 29.4851 129.223 29.3312 129.337 29.2177C129.452 29.1042 129.606 29.0404 129.768 29.0404H132.677C132.839 29.0404 132.994 29.1042 133.108 29.2177C133.222 29.3312 133.286 29.4851 133.286 29.6457V31.9139C133.286 31.9139 134.326 28.6783 137.413 28.6783C137.413 28.6783 140.466 28.3114 141.707 31.6804C141.707 31.6804 142.747 28.6783 145.901 28.6783C145.901 28.6783 150.591 28.4011 150.591 33.226L150.627 35.8833V45.7856C150.627 45.9461 150.562 46.1001 150.448 46.2136C150.334 46.3271 150.179 46.3908 150.018 46.3908H146.873C146.712 46.3908 146.557 46.327 146.443 46.2135C146.329 46.1 146.265 45.9461 146.265 45.7856L146.236 34.9827C146.325 32.5365 144.335 32.7144 144.335 32.7144C141.83 32.759 142.071 35.8833 142.071 35.8833V45.7856C142.071 45.9461 142.007 46.1001 141.893 46.2136C141.779 46.3271 141.624 46.3908 141.462 46.3908H138.318C138.157 46.3908 138.002 46.327 137.888 46.2135C137.774 46.1 137.71 45.9461 137.71 45.7856V35.2271C137.71 35.2271 137.893 32.692 135.657 32.692C135.657 32.692 133.443 32.403 133.521 35.8499ZM214.565 35.8203V45.7224C214.565 45.8829 214.501 46.0368 214.387 46.1503C214.273 46.2637 214.118 46.3275 213.956 46.3276L210.686 46.3906C210.525 46.3905 210.37 46.3267 210.256 46.2132C210.142 46.0997 210.078 45.9458 210.078 45.7854V35.2271C210.078 35.2271 210.262 32.692 208.025 32.692C208.025 32.692 205.889 32.5874 205.889 36.5622V45.752C205.889 45.9125 205.825 46.0664 205.71 46.1799C205.596 46.2934 205.441 46.3571 205.28 46.3572H202.136C201.974 46.3571 201.82 46.2934 201.705 46.1799C201.591 46.0664 201.527 45.9125 201.527 45.752V29.6457C201.527 29.4852 201.591 29.3313 201.705 29.2178C201.82 29.1043 201.974 29.0405 202.136 29.0404H205.045C205.207 29.0404 205.362 29.1042 205.476 29.2177C205.59 29.3312 205.654 29.4851 205.654 29.6457V31.9139C205.654 31.9139 206.694 28.6783 209.781 28.6783C209.781 28.6783 213.087 28.1796 214.201 31.6177C214.201 31.6174 214.565 32.3267 214.565 35.8203ZM191.864 28.6116C187.843 28.6116 184.584 31.9806 184.584 37.6512C184.584 42.6437 187.1 46.6908 191.864 46.6908C196.36 46.6908 199.144 42.6437 199.144 37.6512C199.144 32.0807 195.885 28.6116 191.864 28.6116ZM194.402 37.8513C194.402 39.9861 194.133 41.1203 194.133 41.1203C193.751 43.377 192.104 43.3802 191.861 43.3682C191.598 43.3786 189.937 43.3551 189.593 41.1203C189.593 41.1203 189.325 39.9861 189.325 37.8513V37.4956C189.325 35.3608 189.593 34.2267 189.593 34.2267C189.937 31.9918 191.599 31.9683 191.861 31.9785C192.104 31.9665 193.751 31.9694 194.133 34.2267C194.133 34.2267 194.402 35.3608 194.402 37.4956V37.8513ZM182.759 31.8915V29.5805C182.759 29.4201 182.694 29.2662 182.58 29.1527C182.466 29.0392 182.311 28.9754 182.15 28.9753H171.758C171.596 28.9753 171.441 29.0391 171.327 29.1526C171.213 29.2661 171.149 29.42 171.149 29.5805V31.8736C171.149 32.0341 171.213 32.188 171.327 32.3015C171.441 32.415 171.596 32.4787 171.758 32.4788H177.178L170.762 41.7332C170.762 41.7332 170.509 42.1084 170.518 42.5228V45.3378C170.518 45.3378 170.476 46.303 171.577 45.7429C171.577 45.7429 173.532 44.5682 176.811 44.5682C176.811 44.5682 180.049 44.5282 182.208 45.8441C182.208 45.8441 183.105 46.2491 183.105 45.3584V42.9082C183.105 42.9082 183.186 42.2597 182.331 41.8549C182.331 41.8549 179.846 40.4982 176.587 40.7208L182.759 31.8915ZM126.733 43.4771L125.748 41.9875C125.435 41.4314 125.458 40.8086 125.458 40.8086V33.9374C125.592 28 118.971 28.5115 118.971 28.5115C113.086 28.5115 112.216 33.0654 112.216 33.0654C111.971 33.9809 112.685 34.0031 112.685 34.0031L115.56 34.2931C115.56 34.2931 116.051 34.4047 116.229 33.8243C116.229 33.8243 116.608 31.8376 118.726 31.8376C121.03 31.8376 121.007 33.804 121.007 33.804V35.4502C116.406 35.6031 114.274 36.8728 114.274 36.8728C111.434 38.4739 111.613 41.654 111.613 41.654C111.613 46.8351 116.578 46.6126 116.578 46.6126C119.754 46.6126 121.633 44.3001 121.633 44.3001C122.192 45.2789 123.221 46.2123 123.221 46.2123C123.736 46.7674 124.272 46.3014 124.272 46.3014L126.598 44.3225C127.113 43.9441 126.733 43.4771 126.733 43.4771ZM118.128 43.413C116.634 43.413 116.079 41.9371 116.327 40.4865C116.575 39.0359 117.864 37.8959 121.007 37.9293V38.8112C121.118 42.664 119.371 43.413 118.128 43.413ZM168.513 43.4771L167.529 41.9875C167.216 41.4314 167.238 40.8086 167.238 40.8086V33.9374C167.372 28 160.752 28.5115 160.752 28.5115C154.866 28.5115 153.997 33.0654 153.997 33.0654C153.752 33.9809 154.465 34.0031 154.465 34.0031L157.341 34.2931C157.341 34.2931 157.831 34.4047 158.01 33.8243C158.01 33.8243 158.389 31.8376 160.507 31.8376C162.811 31.8376 162.787 33.804 162.787 33.804V35.4502C158.187 35.6031 156.055 36.8728 156.055 36.8728C153.214 38.4739 153.393 41.654 153.393 41.654C153.393 46.8351 158.359 46.6126 158.359 46.6126C161.535 46.6126 163.413 44.3001 163.413 44.3001C163.973 45.2789 165.001 46.2123 165.001 46.2123C165.516 46.7674 166.053 46.3014 166.053 46.3014L168.379 44.3225C168.893 43.9441 168.513 43.4771 168.513 43.4771ZM159.909 43.413C158.415 43.413 157.859 41.9371 158.107 40.4865C158.356 39.0359 159.645 37.8959 162.787 37.9293V38.8112C162.899 42.664 161.152 43.413 159.909 43.413Z" fill="white"/>
<path d="M176.431 56.4826C176.431 56.4826 176.168 56.9376 176.491 57.0393C176.491 57.0393 176.856 57.181 177.311 56.7609C177.311 56.7609 180.631 53.8776 180.711 48.6281C180.711 48.6281 180.736 47.9725 180.471 47.7931C180.471 47.7931 179.431 46.8784 175.691 47.1567C175.691 47.1567 172.431 47.3755 170.651 48.9465C170.651 48.9465 170.491 49.0855 170.491 49.2643C170.491 49.2643 170.453 49.6504 171.431 49.4831C171.431 49.4831 174.691 49.0255 176.631 49.2643C176.631 49.2643 177.631 49.3836 177.911 49.7219C177.911 49.7219 178.371 50.0998 178.131 51.3521C178.131 51.3527 177.471 54.5341 176.431 56.4826Z" fill="white"/>
<path d="M175.773 51.4461C175.773 51.4461 176.26 52.0732 175.475 52.6142C175.475 52.6142 167.082 59.2881 152.992 59.2881C152.992 59.2881 138.487 59.9995 126.375 49.0586C126.375 49.0586 125.951 48.688 126.214 48.3435C126.214 48.3435 126.45 48.0265 127.06 48.3712C127.06 48.3712 138.453 55.4297 153.416 55.4297C153.416 55.4297 163.817 55.83 174.486 51.2935C174.486 51.2935 175.336 50.8556 175.773 51.4461Z" fill="white"/>
<path d="M129.928 80.7303C130.304 79.5698 130.648 78.507 130.691 78.3711C130.733 78.2317 130.782 78.1167 130.8 78.1167C130.814 78.1167 130.993 78.622 131.193 79.2388C131.394 79.8591 131.713 80.8348 131.9 81.4098C132.086 81.9848 132.307 82.6678 132.546 83.3961L135.333 83.3822C137.446 83.3717 138.127 83.3752 138.149 83.4066C138.163 83.4344 138.089 83.5076 137.938 83.6122C137.804 83.7028 137.305 84.0582 136.82 84.4067C136.339 84.7552 135.442 85.3963 134.834 85.8319C134.226 86.2675 133.703 86.6404 133.675 86.6543C133.629 86.6822 133.632 86.7136 133.696 86.9052C133.738 87.0272 133.868 87.414 133.984 87.7695C134.1 88.1249 134.448 89.1843 134.757 90.1217C135.066 91.0591 135.33 91.8641 135.34 91.9094C135.351 91.9512 135.351 91.986 135.337 91.986C135.319 91.986 134.943 91.7247 134.497 91.4041C134.051 91.08 133.059 90.3621 132.293 89.808C131.524 89.254 130.877 88.7835 130.852 88.7661C130.824 88.7452 130.575 88.902 130.055 89.2749C129.64 89.5746 128.621 90.3133 127.788 90.9162C126.955 91.5191 126.266 92.0069 126.248 92C126.234 91.993 126.287 91.8013 126.361 91.5748C126.438 91.3518 126.656 90.6897 126.849 90.1043C127.043 89.5188 127.341 88.6267 127.51 88.1179C127.675 87.6092 127.851 87.0795 127.981 86.6892L127.355 86.2466C127.014 86.0027 126.575 85.6926 126.382 85.5532C126.189 85.4138 125.454 84.8876 124.751 84.3823C124.045 83.877 123.461 83.4449 123.451 83.417C123.433 83.3752 123.82 83.3717 129.053 83.4205L129.148 83.1313C129.201 82.971 129.548 81.8907 129.928 80.7303Z" fill="#FFCC02"/>
<path d="M146.028 80.7303C146.404 79.5698 146.748 78.507 146.79 78.3711C146.832 78.2317 146.882 78.1167 146.899 78.1167C146.913 78.1167 147.093 78.622 147.293 79.2388C147.493 79.8591 147.813 80.8348 147.999 81.4098C148.186 81.9848 148.407 82.6678 148.646 83.3961L151.433 83.3822C153.545 83.3717 154.227 83.3752 154.248 83.4066C154.262 83.4344 154.188 83.5076 154.037 83.6122C153.904 83.7028 153.405 84.0582 152.92 84.4067C152.438 84.7552 151.542 85.3963 150.934 85.8319C150.326 86.2675 149.802 86.6404 149.774 86.6543C149.728 86.6822 149.732 86.7136 149.795 86.9052C149.837 87.0272 149.967 87.414 150.083 87.7695C150.199 88.1249 150.547 89.1843 150.857 90.1217C151.166 91.0591 151.429 91.8641 151.44 91.9094C151.451 91.9512 151.451 91.986 151.436 91.986C151.419 91.986 151.043 91.7247 150.597 91.4041C150.15 91.08 149.159 90.3621 148.393 89.808C147.623 89.254 146.977 88.7835 146.952 88.7661C146.924 88.7452 146.674 88.902 146.154 89.2749C145.739 89.5746 144.72 90.3133 143.887 90.9162C143.054 91.5191 142.365 92.0069 142.348 92C142.334 91.993 142.387 91.8013 142.46 91.5748C142.538 91.3518 142.756 90.6897 142.949 90.1043C143.142 89.5188 143.441 88.6267 143.61 88.1179C143.775 87.6092 143.951 87.0795 144.081 86.6892L143.455 86.2466C143.114 86.0027 142.675 85.6926 142.481 85.5532C142.288 85.4138 141.554 84.8876 140.851 84.3823C140.144 83.877 139.561 83.4449 139.55 83.417C139.533 83.3752 139.919 83.3717 145.153 83.4205L145.247 83.1313C145.3 82.971 145.648 81.8907 146.028 80.7303Z" fill="#FFCC02"/>
<path d="M162.128 80.7303C162.504 79.5698 162.849 78.507 162.891 78.3711C162.933 78.2317 162.982 78.1167 163 78.1167C163.014 78.1167 163.193 78.622 163.393 79.2388C163.594 79.8591 163.914 80.8348 164.1 81.4098C164.286 81.9848 164.508 82.6678 164.747 83.3961L167.534 83.3822C169.646 83.3717 170.328 83.3752 170.349 83.4066C170.363 83.4344 170.289 83.5076 170.138 83.6122C170.004 83.7028 169.505 84.0582 169.02 84.4067C168.539 84.7552 167.643 85.3963 167.034 85.8319C166.426 86.2675 165.903 86.6404 165.875 86.6543C165.829 86.6822 165.833 86.7136 165.896 86.9052C165.938 87.0272 166.068 87.414 166.184 87.7695C166.3 88.1249 166.648 89.1843 166.957 90.1217C167.266 91.0591 167.53 91.8641 167.541 91.9094C167.551 91.9512 167.551 91.986 167.537 91.986C167.52 91.986 167.143 91.7247 166.697 91.4041C166.251 91.08 165.26 90.3621 164.493 89.808C163.724 89.254 163.077 88.7835 163.053 88.7661C163.024 88.7452 162.775 88.902 162.255 89.2749C161.84 89.5746 160.821 90.3133 159.988 90.9162C159.155 91.5191 158.466 92.0069 158.448 92C158.434 91.993 158.487 91.8013 158.561 91.5748C158.638 91.3518 158.856 90.6897 159.049 90.1043C159.243 89.5188 159.542 88.6267 159.71 88.1179C159.875 87.6092 160.051 87.0795 160.181 86.6892L159.556 86.2466C159.215 86.0027 158.775 85.6926 158.582 85.5532C158.389 85.4138 157.654 84.8876 156.951 84.3823C156.245 83.877 155.661 83.4449 155.651 83.417C155.633 83.3752 156.02 83.3717 161.253 83.4205L161.348 83.1313C161.401 82.971 161.749 81.8907 162.128 80.7303Z" fill="#FFCC02"/>
<path d="M178.228 80.7303C178.604 79.5698 178.948 78.507 178.99 78.3711C179.033 78.2317 179.082 78.1167 179.099 78.1167C179.113 78.1167 179.293 78.622 179.493 79.2388C179.693 79.8591 180.013 80.8348 180.199 81.4098C180.386 81.9848 180.607 82.6678 180.846 83.3961L183.633 83.3822C185.745 83.3717 186.427 83.3752 186.448 83.4066C186.462 83.4344 186.389 83.5076 186.237 83.6122C186.104 83.7028 185.605 84.0582 185.12 84.4067C184.638 84.7552 183.742 85.3963 183.134 85.8319C182.526 86.2675 182.002 86.6404 181.974 86.6543C181.929 86.6822 181.932 86.7136 181.995 86.9052C182.038 87.0272 182.168 87.414 182.284 87.7695C182.4 88.1249 182.748 89.1843 183.057 90.1217C183.366 91.0591 183.63 91.8641 183.64 91.9094C183.651 91.9512 183.651 91.986 183.637 91.986C183.619 91.986 183.243 91.7247 182.797 91.4041C182.35 91.08 181.359 90.3621 180.593 89.808C179.823 89.254 179.177 88.7835 179.152 88.7661C179.124 88.7452 178.874 88.902 178.354 89.2749C177.94 89.5746 176.92 90.3133 176.087 90.9162C175.255 91.5191 174.566 92.0069 174.548 92C174.534 91.993 174.587 91.8013 174.661 91.5748C174.738 91.3518 174.956 90.6897 175.149 90.1043C175.342 89.5188 175.641 88.6267 175.81 88.1179C175.975 87.6092 176.151 87.0795 176.281 86.6892L175.655 86.2466C175.314 86.0027 174.875 85.6926 174.682 85.5532C174.488 85.4138 173.754 84.8876 173.051 84.3823C172.344 83.877 171.761 83.4449 171.751 83.417C171.733 83.3752 172.12 83.3717 177.353 83.4205L177.448 83.1313C177.5 82.971 177.848 81.8907 178.228 80.7303Z" fill="#FFCC02"/>
<path d="M194.328 80.7303C194.704 79.5698 195.049 78.507 195.091 78.3711C195.133 78.2317 195.182 78.1167 195.2 78.1167C195.214 78.1167 195.393 78.622 195.594 79.2388C195.794 79.8591 196.114 80.8348 196.3 81.4098C196.486 81.9848 196.708 82.6678 196.947 83.3961L199.734 83.3822C201.846 83.3717 202.528 83.3752 202.549 83.4066C202.563 83.4344 202.489 83.5076 202.338 83.6122C202.204 83.7028 201.705 84.0582 201.22 84.4067C200.739 84.7552 199.843 85.3963 199.235 85.8319C198.627 86.2675 198.103 86.6404 198.075 86.6543C198.029 86.6822 198.033 86.7136 198.096 86.9052C198.138 87.0272 198.268 87.414 198.384 87.7695C198.5 88.1249 198.848 89.1843 199.157 90.1217C199.467 91.0591 199.73 91.8641 199.741 91.9094C199.751 91.9512 199.751 91.986 199.737 91.986C199.72 91.986 199.344 91.7247 198.897 91.4041C198.451 91.08 197.46 90.3621 196.694 89.808C195.924 89.254 195.277 88.7835 195.253 88.7661C195.225 88.7452 194.975 88.902 194.455 89.2749C194.04 89.5746 193.021 90.3133 192.188 90.9162C191.355 91.5191 190.666 92.0069 190.649 92C190.635 91.993 190.687 91.8013 190.761 91.5748C190.838 91.3518 191.056 90.6897 191.25 90.1043C191.443 89.5188 191.742 88.6267 191.91 88.1179C192.076 87.6092 192.251 87.0795 192.381 86.6892L191.756 86.2466C191.415 86.0027 190.976 85.6926 190.782 85.5532C190.589 85.4138 189.854 84.8876 189.151 84.3823C188.445 83.877 187.862 83.4449 187.851 83.417C187.834 83.3752 188.22 83.3717 193.453 83.4205L193.548 83.1313C193.601 82.971 193.949 81.8907 194.328 80.7303Z" fill="#FFCC02"/>
<path d="M76.388 106.84L76.1 109.624H67.844L67.62 114.36H69.284C74.372 114.36 77.156 116.216 77.156 120.056C77.156 123.832 74.148 126.072 69.412 126.072C67.3 126.072 65.188 125.784 63.652 124.984L63.908 122.072C65.316 122.936 67.172 123.288 69.22 123.288C72.036 123.288 73.796 122.2 73.796 119.992C73.796 117.816 72.356 116.824 68.74 116.824H64.708L65.156 106.84H76.388ZM81.2633 119.48C82.3193 119.48 83.0873 120.28 83.0873 121.368C83.0873 122.424 82.2873 123.224 81.2633 123.224C80.2073 123.224 79.4393 122.424 79.4393 121.368C79.4393 120.28 80.2393 119.48 81.2633 119.48ZM99.1033 114.904C99.1033 120.312 96.5753 123.224 92.0633 123.224C87.5833 123.224 85.0233 120.344 85.0233 114.904C85.0233 109.528 87.5833 106.616 92.0633 106.616C96.5753 106.616 99.1033 109.496 99.1033 114.904ZM95.9353 114.904C95.9353 111.032 94.6553 109.176 92.0633 109.176C89.4713 109.176 88.2233 111.032 88.2233 114.904C88.2233 118.808 89.4713 120.664 92.0633 120.664C94.6553 120.664 95.9353 118.84 95.9353 114.904Z" fill="white"/>
<path d="M121.698 115.494C121.698 117.258 120.42 118.5 117.918 118.5H113.634V107.808H117.594C120.042 107.808 121.212 108.906 121.212 110.598C121.212 111.786 120.546 112.614 119.574 112.938C120.834 113.244 121.698 114.162 121.698 115.494ZM119.484 110.832C119.484 109.842 118.854 109.248 117.396 109.248H115.362V112.452H117.504C118.854 112.452 119.484 111.804 119.484 110.832ZM119.934 115.35C119.934 114.342 119.232 113.766 117.72 113.766H115.362V117.06H117.702C119.16 117.06 119.934 116.484 119.934 115.35ZM129.53 118.5H127.928V117.834C127.298 118.284 126.38 118.626 125.354 118.626C123.59 118.626 122.618 117.762 122.618 116.304C122.618 114.702 123.86 113.892 125.786 113.892C126.542 113.892 127.424 114.054 127.892 114.27V113.532C127.892 112.398 127.208 111.93 125.858 111.93C124.904 111.93 123.932 112.2 123.356 112.56L123.284 111.048C123.986 110.67 124.994 110.454 126.074 110.454C128.288 110.454 129.53 111.354 129.53 113.424V118.5ZM127.892 116.844V115.35C127.442 115.116 126.758 114.99 126.146 114.99C124.994 114.99 124.31 115.368 124.31 116.286C124.31 117.132 124.922 117.474 125.876 117.474C126.614 117.474 127.442 117.186 127.892 116.844ZM136.655 110.796L136.403 112.236C135.899 112.002 135.161 111.84 134.387 111.84C133.469 111.84 132.983 112.2 132.983 112.74C132.983 114.018 137.015 113.604 137.015 116.214C137.015 117.528 136.079 118.626 133.793 118.626C132.803 118.626 131.741 118.392 131.147 118.032L131.273 116.574C131.867 116.952 132.875 117.24 133.775 117.24C134.801 117.24 135.269 116.916 135.269 116.286C135.269 114.99 131.255 115.404 131.255 112.812C131.255 111.534 132.371 110.454 134.405 110.454C135.341 110.454 136.115 110.58 136.655 110.796ZM145.288 114.936H139.78C139.96 116.304 141.04 117.15 142.714 117.15C143.614 117.15 144.658 116.862 145.288 116.412L145.36 117.906C144.748 118.356 143.56 118.626 142.606 118.626C139.744 118.626 138.016 117.024 138.016 114.468C138.016 112.056 139.672 110.454 141.886 110.454C143.902 110.454 145.36 111.768 145.36 113.856C145.36 114.162 145.342 114.594 145.288 114.936ZM141.886 111.696C140.698 111.696 139.852 112.56 139.726 113.91H143.758C143.776 113.838 143.776 113.712 143.776 113.622C143.776 112.488 143.02 111.696 141.886 111.696ZM153.997 107.088V118.5H152.323V117.924C151.693 118.392 150.919 118.626 150.091 118.626C148.075 118.626 146.401 117.132 146.401 114.612C146.401 112.146 148.057 110.454 150.487 110.454C151.135 110.454 151.819 110.562 152.323 110.796V107.178L153.997 107.088ZM152.323 112.236C151.927 112.056 151.279 111.912 150.721 111.912C149.227 111.912 148.147 112.92 148.147 114.576C148.147 116.196 149.119 117.168 150.505 117.168C151.189 117.168 151.801 116.988 152.323 116.592V112.236ZM167.427 114.54C167.427 116.934 165.627 118.626 163.233 118.626C160.857 118.626 159.039 116.934 159.039 114.54C159.039 112.146 160.857 110.454 163.233 110.454C165.627 110.454 167.427 112.146 167.427 114.54ZM165.681 114.54C165.681 112.992 164.601 111.93 163.233 111.93C161.847 111.93 160.785 112.992 160.785 114.54C160.785 116.088 161.865 117.15 163.233 117.15C164.619 117.15 165.681 116.088 165.681 114.54ZM175.99 118.5H174.298V113.64C174.298 112.47 173.704 111.948 172.66 111.948C171.958 111.948 171.184 112.254 170.536 112.686V118.5H168.844V110.616L170.536 110.544V111.39C171.4 110.742 172.3 110.454 173.218 110.454C174.91 110.454 175.99 111.318 175.99 113.28V118.5ZM185.422 118.5H183.676V111.066L181.264 112.11V110.508L183.676 109.41H185.422V118.5ZM194.297 112.182C194.297 113.856 192.875 115.242 189.761 116.934H194.693L194.549 118.5H187.223V116.988C191.129 114.792 192.407 113.784 192.407 112.488C192.407 111.498 191.633 110.832 190.103 110.832C189.149 110.832 188.051 111.12 187.457 111.48L187.385 109.896C188.141 109.482 189.347 109.284 190.463 109.284C192.947 109.284 194.297 110.418 194.297 112.182ZM203.56 115.764C203.56 117.546 201.958 118.626 199.618 118.626C197.206 118.626 195.766 117.546 195.766 115.89C195.766 114.864 196.414 113.856 198.07 113.118C196.936 112.56 195.964 111.804 195.964 110.49C195.964 108.78 197.476 107.682 199.726 107.682C201.994 107.682 203.362 108.762 203.362 110.364C203.362 111.39 202.732 112.272 201.382 112.974C202.534 113.568 203.56 114.378 203.56 115.764ZM201.562 110.58C201.562 109.752 200.95 109.158 199.708 109.158C198.502 109.158 197.836 109.716 197.836 110.616C197.836 111.498 198.88 111.93 200.104 112.416C201.022 111.894 201.562 111.354 201.562 110.58ZM201.688 115.656C201.688 114.666 200.572 114.198 199.348 113.694C198.052 114.324 197.566 114.9 197.566 115.674C197.566 116.52 198.286 117.15 199.636 117.15C200.914 117.15 201.688 116.574 201.688 115.656ZM213.495 110.544L213.441 112.164C213.261 112.092 212.901 112.02 212.631 112.02C211.857 112.02 211.119 112.398 210.561 112.974V118.5H208.869V110.616L210.561 110.544V111.606C211.227 110.85 212.055 110.454 212.901 110.454C213.117 110.454 213.369 110.49 213.495 110.544ZM221.384 114.936H215.876C216.056 116.304 217.136 117.15 218.81 117.15C219.71 117.15 220.754 116.862 221.384 116.412L221.456 117.906C220.844 118.356 219.656 118.626 218.702 118.626C215.84 118.626 214.112 117.024 214.112 114.468C214.112 112.056 215.768 110.454 217.982 110.454C219.998 110.454 221.456 111.768 221.456 113.856C221.456 114.162 221.438 114.594 221.384 114.936ZM217.982 111.696C216.794 111.696 215.948 112.56 215.822 113.91H219.854C219.872 113.838 219.872 113.712 219.872 113.622C219.872 112.488 219.116 111.696 217.982 111.696ZM230.221 110.58L227.251 118.5H225.145L222.193 110.616L223.939 110.544L225.595 114.954C225.865 115.728 226.081 116.412 226.189 116.988H226.279C226.387 116.412 226.603 115.692 226.855 114.954L228.493 110.58H230.221ZM232.25 107.124C232.808 107.124 233.222 107.538 233.222 108.078C233.222 108.636 232.808 109.068 232.25 109.068C231.674 109.068 231.242 108.636 231.242 108.078C231.242 107.538 231.674 107.124 232.25 107.124ZM233.078 110.544V118.5H231.386V110.616L233.078 110.544ZM241.774 114.936H236.266C236.446 116.304 237.526 117.15 239.2 117.15C240.1 117.15 241.144 116.862 241.774 116.412L241.846 117.906C241.234 118.356 240.046 118.626 239.092 118.626C236.23 118.626 234.502 117.024 234.502 114.468C234.502 112.056 236.158 110.454 238.372 110.454C240.388 110.454 241.846 111.768 241.846 113.856C241.846 114.162 241.828 114.594 241.774 114.936ZM238.372 111.696C237.184 111.696 236.338 112.56 236.212 113.91H240.244C240.262 113.838 240.262 113.712 240.262 113.622C240.262 112.488 239.506 111.696 238.372 111.696ZM255.289 110.58L252.769 118.5H250.969L249.691 114.864C249.385 113.928 249.187 113.316 249.061 112.794H248.989C248.863 113.316 248.665 113.928 248.359 114.864L247.081 118.5H245.281L242.779 110.616L244.489 110.544L245.893 115.026C246.037 115.53 246.199 116.214 246.271 116.736H246.361C246.451 116.214 246.631 115.53 246.811 115.026L248.161 111.138H249.943L251.311 115.026C251.473 115.53 251.671 116.214 251.761 116.736H251.833C251.923 116.214 252.085 115.53 252.229 115.026L253.597 110.58H255.289ZM261.636 110.796L261.384 112.236C260.88 112.002 260.142 111.84 259.368 111.84C258.45 111.84 257.964 112.2 257.964 112.74C257.964 114.018 261.996 113.604 261.996 116.214C261.996 117.528 261.06 118.626 258.774 118.626C257.784 118.626 256.722 118.392 256.128 118.032L256.254 116.574C256.848 116.952 257.856 117.24 258.756 117.24C259.782 117.24 260.25 116.916 260.25 116.286C260.25 114.99 256.236 115.404 256.236 112.812C256.236 111.534 257.352 110.454 259.386 110.454C260.322 110.454 261.096 110.58 261.636 110.796Z" fill="white"/>
</svg>
