<svg width="118" height="150" viewBox="0 0 118 150" fill="none" xmlns="http://www.w3.org/2000/svg">
<path d="M79.7505 0.00287359C86.76 0.12526 92.893 2.82242 96.5646 8.83257C99.8022 14.1322 100.281 20.7341 99.8606 26.9346C99.0116 39.4593 93.9471 56.2999 88.1838 74.2189L88.1139 74.436L88.0315 74.6492C84.0726 84.9088 79.2763 96.5472 74.3029 104.515C75.7548 108.852 77.4396 112.451 79.2884 115.214C81.6123 118.686 83.8781 120.385 85.8585 121.062L83.2725 128.633L80.6871 136.205C74.3507 134.041 69.5532 129.438 65.9893 124.113C64.7294 122.23 63.5845 120.199 62.5441 118.056C54.8899 124.917 45.91 130.437 36.6422 132.319C30.9681 133.472 24.9974 132.756 19.2807 130.44C13.5381 128.113 8.6684 124.414 4.82202 118.499C-3.87948 105.118 0.399682 87.4638 8.1466 74.8511C15.9848 62.0899 29.8745 50.2714 45.9961 50.5528L45.7169 66.5523C37.624 66.4111 28.1528 72.8546 21.7823 83.2262C15.3207 93.7463 14.5434 103.563 18.2368 109.242C20.5878 112.858 23.041 115.231 25.2901 116.143C27.5651 117.065 30.2558 117.288 33.4567 116.638C40.1283 115.282 48.0651 110.288 55.3994 102.745C55.8732 102.258 56.325 101.772 56.7596 101.286C52.2775 82.8534 51.1817 59.9491 53.433 41.0966C54.6392 30.9954 56.8768 21.4174 60.4913 14.1384C63.9499 7.17343 70.0466 -0.166409 79.7505 0.00287359ZM79.4713 16.0024C79.2971 15.9994 77.4334 15.9995 74.8236 21.255C72.3688 26.1986 70.4284 33.7282 69.322 42.9937C67.9987 54.0749 67.9703 66.7245 69.1808 78.6922C70.4623 75.6207 71.7482 72.3922 73.0195 69.1018C78.9033 50.7973 83.2072 36.0038 83.8954 25.8526C84.245 20.6955 83.5286 18.188 82.9096 17.1747C82.7247 16.872 82.3387 16.0525 79.4713 16.0024Z" fill="white"/>
<path d="M112.906 123.99C110.369 125.555 107.529 128.493 105.397 133.517C103.258 138.556 101.926 140.983 100.152 142.722C98.6497 144.195 96.7834 145.229 93.5984 146.826C93.4867 146.758 93.4003 146.686 93.3078 146.579C93.2238 146.483 93.0589 146.236 92.9412 146.032C92.8235 145.829 92.6597 145.522 92.5774 145.352C92.4951 145.182 92.3518 144.842 92.2591 144.597C92.1662 144.352 92.0598 144.055 92.0227 143.937C91.9855 143.819 91.9156 143.565 91.8675 143.372C91.8195 143.179 91.7411 142.805 91.6938 142.54C91.6463 142.275 91.5962 141.918 91.5819 141.748C91.5679 141.577 91.5477 141.167 91.5377 140.836C91.5274 140.505 91.5278 140.056 91.5383 139.839C91.5486 139.621 91.5797 139.233 91.6065 138.977C91.6333 138.721 91.6862 138.342 91.7238 138.137C91.7612 137.93 91.8306 137.579 91.8775 137.355C91.9246 137.131 92.0605 136.622 92.1796 136.224C92.299 135.827 92.4907 135.261 92.6056 134.966C92.7208 134.672 92.929 134.187 93.0685 133.889C93.2083 133.591 93.4253 133.157 93.5508 132.926C93.6762 132.695 93.9066 132.297 94.063 132.041C94.2193 131.785 94.4661 131.401 94.6114 131.189C94.7566 130.976 95.0271 130.603 95.2119 130.36C95.3967 130.118 95.8253 129.608 96.1636 129.227C96.5435 128.8 96.9672 128.357 97.2711 128.069C97.5417 127.813 97.961 127.437 98.2024 127.233C98.4439 127.03 98.8296 126.722 99.0599 126.548C99.2899 126.374 99.7544 126.051 100.092 125.83C100.43 125.61 100.951 125.295 101.248 125.131C101.546 124.967 101.938 124.763 102.119 124.677C102.299 124.591 102.665 124.429 102.932 124.316C103.198 124.203 103.428 124.111 103.444 124.111C103.459 124.113 103.639 124.049 103.842 123.971C104.045 123.893 104.445 123.762 104.73 123.679C105.015 123.597 105.337 123.513 105.445 123.493C105.554 123.473 105.754 123.43 105.891 123.398C106.028 123.365 106.382 123.302 106.678 123.256C106.974 123.211 107.635 123.159 108.148 123.142C108.662 123.125 109.293 123.131 109.552 123.154C109.811 123.178 110.08 123.209 110.15 123.224C110.219 123.239 110.418 123.272 110.592 123.298C110.765 123.324 111.021 123.371 111.159 123.402C111.298 123.433 111.428 123.474 111.448 123.493C111.469 123.512 111.516 123.526 111.553 123.524C111.59 123.523 111.781 123.572 111.978 123.634C112.174 123.696 112.438 123.789 112.565 123.84C112.691 123.891 112.818 123.942 112.847 123.955C112.861 123.961 112.883 123.974 112.906 123.99Z" fill="white"/>
<path d="M116.589 138.634C116.484 138.884 116.325 139.239 116.235 139.424C116.146 139.608 115.987 139.92 115.882 140.117C115.778 140.314 115.574 140.672 115.431 140.913C115.287 141.154 115.019 141.573 114.835 141.843C114.651 142.113 114.349 142.533 114.165 142.776C113.981 143.019 113.557 143.523 113.225 143.896C112.865 144.301 112.423 144.763 112.13 145.041C111.86 145.298 111.478 145.644 111.283 145.81C111.088 145.977 110.772 146.235 110.58 146.384C110.388 146.533 110.04 146.788 109.806 146.952C109.573 147.116 109.147 147.394 108.861 147.569C108.575 147.744 108.154 147.986 107.926 148.109C107.698 148.231 107.356 148.404 107.165 148.494C106.974 148.584 106.714 148.702 106.585 148.757C106.458 148.812 106.162 148.93 105.927 149.02C105.694 149.11 105.291 149.25 105.033 149.331C104.776 149.412 104.378 149.524 104.151 149.58C103.924 149.636 103.553 149.716 103.326 149.759C103.1 149.803 102.698 149.867 102.435 149.903C102.172 149.938 101.662 149.978 101.302 149.99C100.942 150.003 100.459 150.003 100.23 149.991C100 149.978 99.6639 149.952 99.4818 149.931C99.2999 149.911 98.9911 149.866 98.7961 149.831C98.6009 149.797 98.2454 149.719 98.0063 149.66C97.7674 149.6 97.3751 149.48 97.1348 149.394C96.8943 149.307 96.559 149.173 96.3893 149.097C96.1804 149.003 96.0296 148.911 95.9239 148.812C95.887 148.778 95.8509 148.737 95.8176 148.696C98.471 147.34 100.413 146.201 102.019 144.626C104.215 142.474 105.718 139.585 107.852 134.559C110.162 129.117 113.215 126.684 115.335 125.712C115.419 125.765 115.531 125.847 115.588 125.897C115.647 125.949 115.773 126.096 115.869 126.223C115.964 126.35 116.132 126.593 116.241 126.763C116.351 126.933 116.517 127.213 116.61 127.386C116.704 127.559 116.856 127.866 116.947 128.069C117.039 128.272 117.189 128.663 117.28 128.939C117.372 129.214 117.486 129.608 117.534 129.815C117.583 130.022 117.65 130.349 117.685 130.542C117.719 130.735 117.768 131.082 117.794 131.313C117.82 131.543 117.847 132.008 117.854 132.346C117.862 132.684 117.858 133.137 117.846 133.354C117.833 133.57 117.806 133.916 117.784 134.123C117.761 134.33 117.706 134.718 117.662 134.984C117.618 135.251 117.54 135.649 117.489 135.87C117.438 136.09 117.323 136.52 117.233 136.824C117.143 137.129 117.005 137.558 116.925 137.778C116.846 137.999 116.695 138.384 116.589 138.634Z" fill="white"/>
</svg>
